<svg xmlns="http://www.w3.org/2000/svg" viewBox="0 0 200 320" width="200" height="320">
<g transform="translate(100, 30)">
  <!-- Ambient glow behind stone -->
  <ellipse cx="0" cy="150" rx="70" ry="130" fill="#EF9F27" opacity="0.06"/>

  <!-- LEFT STONE HALF -->
  <path d="
    M-16 280 L-48 274 Q-56 270 -58 262
    L-62 60 Q-64 30 -54 14
    L-38 -4 Q-30 -16 -22 -18
    L-10 -22 Q-6 -22 -4 -10
    L-4 40 L-8 100 L-2 160 L-6 220 L-2 270
    Q-4 278 -16 280Z
  " fill="#2C2C2A"/>
  <path d="
    M-16 280 L-48 274 Q-56 270 -58 262
    L-62 60 Q-64 30 -54 14
    L-38 -4 Q-30 -16 -26 -16
    L-30 40 L-34 120 L-30 200 L-34 260 L-28 276Z
  " fill="#363633"/>
  <!-- Left knotwork carvings -->
  <g stroke="#444441" stroke-width="1.2" stroke-linecap="round" fill="none" opacity="0.6">
    <path d="M-46 60 L-34 48 L-46 36"/>
    <path d="M-50 72 L-34 72"/>
    <line x1="-48" y1="100" x2="-28" y2="100"/>
    <path d="M-48 130 L-36 118 L-48 106"/>
    <rect x="-50" y="170" width="20" height="20" rx="2" transform="rotate(45 -40 180)"/>
    <path d="M-46 220 L-28 220 L-28 238 L-46 238Z"/>
    <line x1="-46" y1="229" x2="-28" y2="229"/>
    <path d="M-42 244 L-42 258"/>
    <path d="M-32 244 L-32 258"/>
  </g>

  <!-- RIGHT STONE HALF -->
  <path d="
    M16 280 L48 274 Q56 270 58 262
    L62 60 Q64 30 54 14
    L38 -4 Q30 -16 22 -18
    L10 -22 Q6 -22 4 -10
    L4 40 L8 100 L2 160 L6 220 L2 270
    Q4 278 16 280Z
  " fill="#2C2C2A"/>
  <path d="
    M16 280 L48 274 Q56 270 58 262
    L62 60 Q64 30 54 14
    L38 -4 Q30 -16 26 -16
    L30 40 L34 120 L30 200 L34 260 L28 276Z
  " fill="#252523"/>
  <!-- Right knotwork carvings -->
  <g stroke="#444441" stroke-width="1.2" stroke-linecap="round" fill="none" opacity="0.6">
    <path d="M46 50 L34 62 L46 74"/>
    <line x1="48" y1="86" x2="28" y2="86"/>
    <path d="M46 110 L34 122 L46 134"/>
    <rect x="30" y="155" width="20" height="20" rx="2" transform="rotate(45 40 165)"/>
    <path d="M28 206 L48 206 L48 224 L28 224Z"/>
    <line x1="28" y1="215" x2="48" y2="215"/>
    <path d="M34 230 L34 248"/>
    <path d="M44 230 L44 248"/>
  </g>

  <!-- KENAZ RUNE — outer glow -->
  <path d="M-2 30 L-2 270" stroke="#EF9F27" stroke-width="8" stroke-linecap="round" opacity="0.15"/>
  <path d="M0 90 L36 130 L0 170" stroke="#EF9F27" stroke-width="10" fill="none" stroke-linecap="round" stroke-linejoin="round" opacity="0.15"/>

  <!-- KENAZ RUNE — mid glow -->
  <path d="M-1 36 L-1 264" stroke="#FAC775" stroke-width="4" stroke-linecap="round" opacity="0.4"/>
  <path d="M0 92 L32 130 L0 168" stroke="#FAC775" stroke-width="6" fill="none" stroke-linecap="round" stroke-linejoin="round" opacity="0.4"/>

  <!-- KENAZ RUNE — core bright -->
  <path d="M0 40 L0 260" stroke="#FAEEDA" stroke-width="2" stroke-linecap="round" opacity="0.9"/>
  <path d="M0 94 L28 130 L0 166" stroke="#FAEEDA" stroke-width="3" fill="none" stroke-linecap="round" stroke-linejoin="round" opacity="0.9"/>

  <!-- Kenaz intersection glow nodes -->
  <circle cx="0" cy="94" r="3" fill="#FAEEDA" opacity="0.7"/>
  <circle cx="28" cy="130" r="3.5" fill="#FAEEDA" opacity="0.8"/>
  <circle cx="0" cy="166" r="3" fill="#FAEEDA" opacity="0.7"/>

  <!-- Circuit traces -->
  <g stroke="#EF9F27" stroke-width="0.6" opacity="0.25" fill="none" stroke-linecap="round">
    <path d="M28 130 L44 130 L44 118"/>
    <circle cx="44" cy="116" r="1.5" fill="#EF9F27"/>
    <path d="M28 130 L40 142 L40 156"/>
    <circle cx="40" cy="158" r="1.5" fill="#EF9F27"/>
    <path d="M0 94 L-20 80 L-20 68"/>
    <circle cx="-20" cy="66" r="1.5" fill="#EF9F27"/>
    <path d="M0 166 L-18 180 L-18 196"/>
    <circle cx="-18" cy="198" r="1.5" fill="#EF9F27"/>
  </g>

  <!-- Base/pedestal -->
  <path d="M-70 280 Q-72 290 -64 294 L64 294 Q72 290 70 280Z" fill="#222220"/>
  <line x1="-66" y1="294" x2="66" y2="294" stroke="#444441" stroke-width="0.8"/>
</g>
</svg>
