<svg xmlns="http://www.w3.org/2000/svg" viewBox="0 0 440 100" width="440" height="100">
<rect x="0" y="0" width="440" height="100" rx="12" fill="#141413"/>
<g transform="translate(40, 50) scale(0.14)">
  <!-- Left stone -->
  <path d="M-16 280 L-48 274 Q-56 270 -58 262 L-62 60 Q-64 30 -54 14 L-38 -4 Q-30 -16 -22 -18 L-10 -22 Q-6 -22 -4 -10 L-4 40 L-8 100 L-2 160 L-6 220 L-2 270 Q-4 278 -16 280Z" fill="#3a3a37"/>
  <!-- Right stone -->
  <path d="M16 280 L48 274 Q56 270 58 262 L62 60 Q64 30 54 14 L38 -4 Q30 -16 22 -18 L10 -22 Q6 -22 4 -10 L4 40 L8 100 L2 160 L6 220 L2 270 Q4 278 16 280Z" fill="#2C2C2A"/>
  <!-- Kenaz glow -->
  <path d="M0 40 L0 260" stroke="#FAC775" stroke-width="5" stroke-linecap="round" opacity="0.6"/>
  <path d="M0 94 L28 130 L0 166" stroke="#FAC775" stroke-width="6" fill="none" stroke-linecap="round" stroke-linejoin="round" opacity="0.6"/>
  <path d="M0 40 L0 260" stroke="#FAEEDA" stroke-width="3" stroke-linecap="round"/>
  <path d="M0 94 L28 130 L0 166" stroke="#FAEEDA" stroke-width="4" fill="none" stroke-linecap="round" stroke-linejoin="round"/>
</g>
<!-- Wordmark on dark -->
<text x="72" y="52" font-family="'Inter', 'Segoe UI', 'Helvetica Neue', Arial, sans-serif" font-size="34" font-weight="500" letter-spacing="6" fill="#e8e6de">RUNE</text>
<!-- Tagline on dark -->
<text x="74" y="72" font-family="'Inter', 'Segoe UI', 'Helvetica Neue', Arial, sans-serif" font-size="10" font-weight="400" letter-spacing="3" fill="#888780">AI GATEWAY</text>
</svg>
