<svg xmlns="http://www.w3.org/2000/svg" viewBox="0 0 512 512" width="512" height="512">
<rect x="0" y="0" width="512" height="512" rx="102" fill="#1a1a18"/>
<g transform="translate(256, 264) scale(0.72)">
  <!-- Left stone -->
  <path d="M-16 280 L-48 274 Q-56 270 -58 262 L-62 60 Q-64 30 -54 14 L-38 -4 Q-30 -16 -22 -18 L-10 -22 Q-6 -22 -4 -10 L-4 40 L-8 100 L-2 160 L-6 220 L-2 270 Q-4 278 -16 280Z" fill="#363633"/>
  <path d="M-16 280 L-48 274 Q-56 270 -58 262 L-62 60 Q-64 30 -54 14 L-38 -4 Q-30 -16 -26 -16 L-30 40 L-34 120 L-30 200 L-34 260 L-28 276Z" fill="#3a3a37"/>
  <!-- Right stone -->
  <path d="M16 280 L48 274 Q56 270 58 262 L62 60 Q64 30 54 14 L38 -4 Q30 -16 22 -18 L10 -22 Q6 -22 4 -10 L4 40 L8 100 L2 160 L6 220 L2 270 Q4 278 16 280Z" fill="#2C2C2A"/>
  <!-- Kenaz outer glow -->
  <path d="M0 40 L0 260" stroke="#EF9F27" stroke-width="8" stroke-linecap="round" opacity="0.2"/>
  <path d="M0 92 L32 130 L0 168" stroke="#EF9F27" stroke-width="8" fill="none" stroke-linecap="round" stroke-linejoin="round" opacity="0.2"/>
  <!-- Kenaz mid glow -->
  <path d="M0 40 L0 260" stroke="#FAC775" stroke-width="5" stroke-linecap="round" opacity="0.6"/>
  <path d="M0 94 L28 130 L0 166" stroke="#FAC775" stroke-width="6" fill="none" stroke-linecap="round" stroke-linejoin="round" opacity="0.6"/>
  <!-- Kenaz core -->
  <path d="M0 40 L0 260" stroke="#FAEEDA" stroke-width="3" stroke-linecap="round"/>
  <path d="M0 94 L28 130 L0 166" stroke="#FAEEDA" stroke-width="4" fill="none" stroke-linecap="round" stroke-linejoin="round"/>
  <!-- Glow nodes -->
  <circle cx="0" cy="94" r="3.5" fill="#FAEEDA" opacity="0.7"/>
  <circle cx="28" cy="130" r="4" fill="#FAEEDA" opacity="0.8"/>
  <circle cx="0" cy="166" r="3.5" fill="#FAEEDA" opacity="0.7"/>
</g>
</svg>
